# xmcd
#
# Track frame offsets:
#	150
#	16683
#	33817
#	55956
#	69933
#	87486
#	111917
#	134457
#	152056
#	161820
#	181305
#	198342
#
# Disc length: 2959 seconds
#
# Revision: 0
# Processed by: cddbd v1.5.2PL0 Copyright (c) Steve Scherf et al.
# Submitted via: dBpowerAMP V4.0
#
DISCID=990b8d0c
DTITLE=Arthur Neilson - A Piece of Wood, Some Strings and a Pick
DYEAR=2001
DGENRE=Blues
TTITLE0=No more doggin
TTITLE1=That's allright (mama)
TTITLE2=Better deal
TTITLE3=One way street
TTITLE4=Walkin' blues
TTITLE5=During the storm
TTITLE6=Rainy day blues
TTITLE7=Watch my guitar play the blues
TTITLE8=Restless
TTITLE9=Feel lke going home
TTITLE10=Leave me alone
TTITLE11=Dance of the zombie
EXTD=
EXTT0=
EXTT1=
EXTT2=
EXTT3=
EXTT4=
EXTT5=
EXTT6=
EXTT7=
EXTT8=
EXTT9=
EXTT10=
EXTT11=
PLAYORDER=
